<?xml version="1.0" standalone="no"?>
<!DOCTYPE svg PUBLIC "-//W3C//DTD SVG 20010904//EN"
 "http://www.w3.org/TR/2001/REC-SVG-20010904/DTD/svg10.dtd">
<svg version="1.0" xmlns="http://www.w3.org/2000/svg"
 width="200.000000pt" height="200.000000pt" viewBox="0 0 200.000000 200.000000"
 preserveAspectRatio="xMidYMid meet">

<g transform="translate(0.000000,200.000000) scale(0.100000,-0.100000)"
fill="#ffffff" stroke="none">
<path d="M0 1000 l0 -1000 1000 0 1000 0 0 1000 0 1000 -1000 0 -1000 0 0
-1000z m978 770 c115 0 124 -1 129 -20 3 -11 10 -20 15 -20 5 0 23 -12 39 -27
l29 -28 0 -152 c0 -200 6 -193 -167 -193 l-128 0 -47 41 -48 41 0 177 c0 98 3
181 7 185 4 4 17 5 28 2 11 -3 76 -6 143 -6z m374 -720 c34 -10 37 -14 44 -55
7 -47 0 -91 -18 -112 -13 -17 -110 -17 -126 -1 -16 16 -16 142 1 156 10 8 25
14 57 21 3 0 22 -4 42 -9z m-1124 -45 c2 -22 8 -44 13 -50 5 -5 9 -26 9 -47 0
-34 -3 -38 -24 -38 -19 0 -25 6 -28 28 -2 19 -9 28 -25 30 -20 3 -23 -1 -23
-27 0 -28 -3 -31 -30 -31 l-30 0 0 90 0 91 68 -3 67 -3 3 -40z m192 25 c0 -17
-7 -20 -40 -20 -29 0 -40 -4 -40 -15 0 -10 10 -15 31 -15 24 0 30 -4 27 -17
-2 -11 -14 -19 -31 -21 -40 -5 -33 -20 11 -24 30 -2 38 -7 40 -25 3 -22 0 -23
-67 -23 l-71 0 0 90 0 90 70 0 c63 0 70 -2 70 -20z m164 -20 c9 -22 16 -63 16
-90 0 -47 -2 -50 -25 -50 -18 0 -25 5 -25 20 0 15 -7 20 -25 20 -18 0 -25 -5
-25 -20 0 -15 -7 -20 -25 -20 -23 0 -25 3 -25 50 0 27 7 68 16 90 15 38 18 40
59 40 41 0 44 -2 59 -40z m184 18 c-2 -19 -10 -24 -40 -26 -37 -3 -38 -4 -38
-42 0 -38 1 -39 38 -42 30 -2 38 -7 40 -25 3 -21 -1 -23 -43 -23 -76 0 -85 10
-85 88 0 40 5 73 12 80 7 7 36 12 66 12 50 0 53 -2 50 -22z m170 0 c-2 -15
-11 -24 -25 -26 -21 -3 -23 -9 -23 -68 0 -62 -1 -64 -25 -64 -24 0 -25 2 -25
64 0 59 -2 65 -22 68 -15 2 -24 11 -26 26 -3 21 -1 22 73 22 74 0 76 -1 73
-22z m154 -3 c6 -14 15 -25 20 -25 5 0 14 11 20 25 8 18 19 25 40 25 l28 0 0
-90 c0 -89 0 -90 -25 -90 -23 0 -25 4 -25 47 l0 46 -21 -19 c-20 -18 -21 -18
-35 1 -13 17 -14 15 -14 -28 0 -46 -1 -47 -30 -47 l-30 0 0 90 0 90 30 0 c23
0 33 -6 42 -25z m390 -30 c6 -68 23 -91 38 -51 5 15 10 45 10 67 0 35 3 39 25
39 23 0 25 -4 25 -47 0 -26 -7 -67 -16 -90 -16 -41 -18 -43 -59 -43 -41 0 -43
2 -59 43 -9 23 -16 64 -16 90 0 43 2 47 24 47 21 0 24 -5 28 -55z m258 34 c0
-12 -8 -23 -20 -26 -16 -4 -20 -14 -20 -43 0 -29 4 -39 20 -43 12 -3 20 -14
20 -27 0 -19 -4 -21 -62 -18 -51 2 -63 6 -66 21 -3 12 4 20 17 24 30 8 31 78
1 86 -12 3 -20 14 -20 26 0 19 6 21 65 21 59 0 65 -2 65 -21z m170 1 c0 -17
-7 -20 -40 -20 -29 0 -40 -4 -40 -15 0 -10 10 -15 30 -15 23 0 30 -4 30 -20 0
-16 -7 -20 -30 -20 -43 0 -37 -18 8 -22 30 -2 38 -7 40 -25 3 -22 0 -23 -67
-23 l-71 0 0 90 0 90 70 0 c63 0 70 -2 70 -20z m-1053 -258 c19 -12 43 -90 43
-138 0 -40 -2 -44 -25 -44 -20 0 -25 5 -25 25 0 34 -47 37 -52 3 -2 -17 -10
-23 -28 -23 -20 0 -26 6 -28 30 -4 34 13 99 34 133 15 22 56 30 81 14z m209
-13 c18 -15 18 -83 1 -98 -8 -6 -28 -14 -45 -17 -25 -5 -32 -12 -32 -30 0 -19
-5 -24 -25 -24 -25 0 -25 1 -25 88 0 49 3 92 8 96 10 11 101 -1 118 -15z m175
6 c14 -9 20 -61 10 -87 -7 -18 -20 -27 -45 -32 -26 -5 -36 -12 -38 -29 -2 -16
-11 -23 -30 -25 l-28 -3 0 89 c0 49 3 92 8 96 7 8 107 0 123 -9z"/>
<path d="M827 1754 c-4 -4 -7 -79 -7 -166 l0 -159 138 3 137 3 0 160 0 160
-131 3 c-71 1 -133 -1 -137 -4z"/>
<path d="M1110 1578 c0 -99 -4 -148 -12 -156 -8 -8 -53 -12 -136 -12 -79 0
-121 -4 -117 -10 4 -6 62 -10 140 -10 124 0 135 2 145 20 15 29 9 302 -7 308
-10 3 -13 -30 -13 -140z"/>
<path d="M1150 1542 c0 -177 5 -172 -148 -172 -62 0 -112 -4 -112 -9 0 -16 31
-21 141 -21 152 0 149 -4 149 190 0 127 -2 150 -15 150 -13 0 -15 -22 -15
-138z"/>
<path d="M1294 997 c-3 -8 -4 -30 -2 -49 2 -25 8 -33 23 -33 17 0 20 7 20 45
0 35 -4 45 -18 48 -9 2 -20 -3 -23 -11z"/>
<path d="M150 990 c0 -11 7 -20 15 -20 8 0 15 9 15 20 0 11 -7 20 -15 20 -8 0
-15 -9 -15 -20z"/>
<path d="M507 980 c-4 -16 0 -20 18 -20 18 0 22 4 18 20 -3 11 -11 20 -18 20
-7 0 -15 -9 -18 -20z"/>
<path d="M810 721 c0 -5 -3 -16 -6 -25 -4 -12 0 -16 15 -16 22 0 25 8 15 34
-7 17 -24 22 -24 7z"/>
<path d="M990 710 c0 -13 7 -20 20 -20 13 0 20 7 20 20 0 13 -7 20 -20 20 -13
0 -20 -7 -20 -20z"/>
<path d="M1170 710 c0 -11 7 -20 15 -20 8 0 15 9 15 20 0 11 -7 20 -15 20 -8
0 -15 -9 -15 -20z"/>
</g>
</svg>
